<mxfile host="app.diagrams.net" modified="2024-03-07T21:45:51.510Z" agent="Mozilla/5.0 (Windows NT 10.0; Win64; x64) AppleWebKit/537.36 (KHTML, like Gecko) Chrome/122.0.0.0 Safari/537.36" version="24.0.2" etag="3lToZErm5BAAM3h9Fqr5" type="github">
  <diagram name="Page-1" id="x0aEoKrF3Et3RT-kHXzc">
    <mxGraphModel>
      <root>
        <mxCell id="0" />
        <mxCell id="1" parent="0" />
      </root>
    </mxGraphModel>
  </diagram>
</mxfile>
